# File created by Blade
# Date/Time:  Wed Jan 21 17:47:40 2015
#---------------------------------------------------------
:version 1.10
:name HOM
:units
  mass 1.0
  length 1.000000
  angle deg
:documentation
     Acclaim Skeleton File
:root
   axis xyz
   order TX TY TZ RX RY RZ
   position 0.000000 0.000000 0.000000
   orientation 0 0 0
:bonedata
   begin
      id 1
      name Spine_dum
      direction 0.000000 1.000000 0.000000
      length 7.067664
      axis 0.0 0.0 0.0 xyz
   end
   begin
      id 2
      name LeftUpLeg_dum
      direction 1.000000 0.000000 0.000000
      length 4.013002
      axis 0.0 0.0 0.0 xyz
   end
   begin
      id 3
      name RightUpLeg_dum
      direction -1.000000 0.000000 0.000000
      length 4.013002
      axis 0.0 0.0 0.0 xyz
   end
   begin
      id 4
      name Spine
      direction 0.000000 1.000000 0.000000
      length 0.000000
      axis 0.0 0.0 0.0 xyz
      dof rx ry rz
   end
   begin
      id 5
      name Spine_dum1
      direction 0.000000 1.000000 0.000000
      length 15.039886
      axis 0.0 0.0 0.0 xyz
   end
   begin
      id 6
      name Spine_dum2
      direction 0.000000 1.000000 0.000000
      length 10.530368
      axis 0.0 0.0 0.0 xyz
   end
   begin
      id 7
      name Spine_dum3
      direction 0.000000 1.000000 0.000000
      length 10.530368
      axis 0.0 0.0 0.0 xyz
   end
   begin
      id 8
      name Head
      direction 0.000000 1.000000 0.000000
      length 4.527550
      axis 0.0 0.0 0.0 xyz
      dof rx ry rz
   end
   begin
      id 9
      name LeftShoulder
      direction 1.000000 0.000000 0.000000
      length 7.028855
      axis 0.0 0.0 -90.0 xyz
      dof rx ry rz
   end
   begin
      id 10
      name LeftArm
      direction 1.000000 0.000000 0.000000
      length 10.797705
      axis 0.0 0.0 -90.0 xyz
      dof rx ry rz
   end
   begin
      id 11
      name LeftForeArm
      direction 1.000000 0.000000 0.000000
      length 7.907442
      axis 0.0 0.0 -90.0 xyz
      dof ry rz rx
   end
   begin
      id 12
      name LeftHand
      direction 0.000000 0.000000 0.000000
      length 0.000000
      axis 0.0 0.0 -90.0 xyz
      dof rx ry rz
   end
   begin
      id 13
      name LeftHand_dum1
      direction 0.000000 0.000000 0.000000
      length 0.000000
      axis 0.0 0.0 -90.0 xyz
   end
   begin
      id 14
      name LeftHand_dum2
      direction 1.000000 0.000000 0.000000
      length 3.937000
      axis 0.0 0.0 -90.0 xyz
   end
   begin
      id 15
      name LeftHandThumb1
      direction 0.000000 0.000000 1.000000
      length 3.937000
      axis 0.0 0.0 -90.0 xyz
      dof rx rz ry
   end
   begin
      id 16
      name RightShoulder
      direction -1.000000 0.000000 0.000000
      length 7.028855
      axis 0.0 0.0 90.0 xyz
      dof rx ry rz
   end
   begin
      id 17
      name RightArm
      direction -1.000000 0.000000 0.000000
      length 10.797705
      axis 0.0 0.0 90.0 xyz
      dof rx ry rz
   end
   begin
      id 18
      name RightForeArm
      direction -1.000000 0.000000 0.000000
      length 7.907442
      axis 0.0 0.0 90.0 xyz
      dof ry rz rx
   end
   begin
      id 19
      name RightHand
      direction 0.000000 0.000000 0.000000
      length 0.000000
      axis 0.0 0.0 90.0 xyz
      dof rx ry rz
   end
   begin
      id 20
      name RightHand_dum1
      direction 0.000000 0.000000 0.000000
      length 0.000000
      axis 0.0 0.0 90.0 xyz
   end
   begin
      id 21
      name RightHand_dum2
      direction -1.000000 0.000000 0.000000
      length 3.937000
      axis 0.0 0.0 90.0 xyz
   end
   begin
      id 22
      name RightHandThumb1
      direction 0.000000 0.000000 1.000000
      length 3.937000
      axis 0.0 0.0 90.0 xyz
      dof rx rz ry
   end
   begin
      id 23
      name LeftUpLeg
      direction 0.000000 -1.000000 0.000000
      length 16.899758
      axis 0.0 0.0 0.0 xyz
      dof rx ry rz
   end
   begin
      id 24
      name LeftLeg
      direction 0.000000 -1.000000 0.000000
      length 17.389183
      axis 0.0 0.0 0.0 xyz
      dof rx ry rz
   end
   begin
      id 25
      name LeftFoot
      direction 0.000000 -0.258819 0.965926
      length 4.924528
      axis 15.0 0.0 0.0 xyz
      dof rx ry rz
   end
   begin
      id 26
      name LeftToeBase
      direction 0.000000 0.000000 1.000000
      length 2.952750
      axis 0.0 0.0 0.0 xyz
      dof rx ry rz
   end
   begin
      id 27
      name RightUpLeg
      direction 0.000000 -1.000000 0.000000
      length 16.899758
      axis 0.0 0.0 0.0 xyz
      dof rx ry rz
   end
   begin
      id 28
      name RightLeg
      direction 0.000000 -1.000000 0.000000
      length 17.389183
      axis 0.0 0.0 0.0 xyz
      dof rx ry rz
   end
   begin
      id 29
      name RightFoot
      direction 0.000000 -0.258819 0.965926
      length 4.924528
      axis 15.0 0.0 0.0 xyz
      dof rx ry rz
   end
   begin
      id 30
      name RightToeBase
      direction 0.000000 0.000000 1.000000
      length 2.952750
      axis 0.0 0.0 0.0 xyz
      dof rx ry rz
   end
:hierarchy
   begin
      root Spine_dum LeftUpLeg_dum RightUpLeg_dum
      Spine_dum Spine
      LeftUpLeg_dum LeftUpLeg
      RightUpLeg_dum RightUpLeg
      Spine Spine_dum1 Spine_dum2 Spine_dum3
      Spine_dum1 Head
      Spine_dum2 LeftShoulder
      Spine_dum3 RightShoulder
      LeftShoulder LeftArm
      LeftArm LeftForeArm
      LeftForeArm LeftHand
      LeftHand LeftHand_dum1 LeftHand_dum2
      LeftHand_dum1 LeftHandThumb1
      RightShoulder RightArm
      RightArm RightForeArm
      RightForeArm RightHand
      RightHand RightHand_dum1 RightHand_dum2
      RightHand_dum1 RightHandThumb1
      LeftUpLeg LeftLeg
      LeftLeg LeftFoot
      LeftFoot LeftToeBase
      RightUpLeg RightLeg
      RightLeg RightFoot
      RightFoot RightToeBase
   end

# File created by Blade
# Date/Time:  Wed Jan 21 17:47:32 2015
# Frame Rate: 120.000 fps
#------------------------------------------------------
:FULLY-SPECIFIED
:DEGREES
119
root 15.749810 35.585471 -20.938628 -174.445988 9.689304 -180.312681
Spine -6.669024 2.542447 -4.549064
Head 25.603053 -20.675411 5.810879
LeftShoulder -14.277769 -22.420296 7.003660
LeftArm -15.067578 -3.210581 -38.266991
LeftForeArm 2.186682 0.000000 3.197605
LeftHand -6.071069 -0.000000 3.176433
LeftHandThumb1 -26.253704 0.000000 33.147579
RightShoulder -13.395018 -11.854764 5.747925
RightArm 12.665117 24.900096 51.436302
RightForeArm -35.123171 0.000000 24.256545
RightHand -11.160410 0.000000 -9.495110
RightHandThumb1 -24.326973 -0.000000 -32.862282
LeftUpLeg 2.794780 14.240019 -1.688250
LeftLeg -5.194355 -0.000000 0.000000
LeftFoot -19.737506 28.378866 -12.892312
LeftToeBase 23.385943 -0.000000 -0.000000
RightUpLeg -9.737801 -0.808951 -8.469418
RightLeg 10.036619 -0.000000 -0.000000
RightFoot -18.212408 -20.599895 20.618877
RightToeBase 21.699042 -0.000000 -0.000000
120
root 15.674722 35.591225 -20.881673 -174.456731 10.106250 -180.255431
Spine -6.293440 2.511576 -4.515406
Head 25.812547 -20.920774 5.969873
LeftShoulder -14.140714 -22.514783 6.697986
LeftArm -15.950016 -3.703116 -39.634358
LeftForeArm 2.092481 -0.000000 3.368020
LeftHand -5.896306 0.000000 2.896965
LeftHandThumb1 -26.253704 0.000000 33.147579
RightShoulder -13.436913 -11.777719 6.213176
RightArm 12.566784 24.082136 52.674560
RightForeArm -34.898220 -0.000000 24.669747
RightHand -10.872364 -0.000000 -9.054013
RightHandThumb1 -24.326973 -0.000000 -32.862282
LeftUpLeg 2.795872 14.489808 -1.794449
LeftLeg -5.316354 -0.000000 0.000000
LeftFoot -19.718229 28.569367 -12.887044
LeftToeBase 23.370923 -0.000000 -0.000000
RightUpLeg -10.134674 -0.530710 -8.519205
RightLeg 10.364085 -0.000000 -0.000000
RightFoot -17.899794 -20.669855 20.578411
RightToeBase 21.589002 -0.000000 -0.000000
121
root 15.604486 35.598927 -20.827946 -174.436800 10.496677 -180.171944
Spine -5.979014 2.434817 -4.466515
Head 26.075604 -21.145624 6.108886
LeftShoulder -13.976056 -22.519620 6.366574
LeftArm -16.777616 -4.259356 -40.980994
LeftForeArm 2.098187 -0.000000 3.529900
LeftHand -5.814459 -0.000000 2.789653
LeftHandThumb1 -26.253704 0.000000 33.147579
RightShoulder -13.453463 -11.760365 6.760618
RightArm 12.443868 23.104199 53.727064
RightForeArm -34.770204 -0.000000 24.971148
RightHand -10.706517 -0.000000 -8.607411
RightHandThumb1 -24.326973 -0.000000 -32.862282
LeftUpLeg 2.779061 14.759656 -1.862238
LeftLeg -5.429651 -0.000000 0.000000
LeftFoot -19.651897 28.681201 -12.807028
LeftToeBase 23.468540 -0.000000 -0.000000
RightUpLeg -10.544089 -0.309142 -8.526253
RightLeg 10.679966 -0.000000 -0.000000
RightFoot -17.565679 -20.734816 20.537378
RightToeBase 21.718166 -0.000000 -0.000000
122
root 15.530100 35.606349 -20.770789 -174.420113 10.948781 -180.082013
Spine -5.648605 2.403090 -4.387520
Head 26.344261 -21.373680 6.198766
LeftShoulder -13.844165 -22.362735 5.955906
LeftArm -17.331156 -4.813121 -42.356431
LeftForeArm 2.102307 -0.000000 3.545077
LeftHand -5.686625 -0.000000 2.448668
LeftHandThumb1 -26.253704 0.000000 33.147579
RightShoulder -13.560182 -11.868517 7.245959
RightArm 12.631565 22.239976 54.929124
RightForeArm -34.767105 -0.000000 24.916905
RightHand -10.126655 -0.000000 -8.071275
RightHandThumb1 -24.326973 -0.000000 -32.862282
LeftUpLeg 2.756901 15.083861 -1.937376
LeftLeg -5.530759 -0.000000 0.000000
LeftFoot -19.598752 28.806964 -12.744434
LeftToeBase 23.353136 -0.000000 -0.000000
RightUpLeg -10.965142 -0.070296 -8.519267
RightLeg 10.973558 -0.000000 -0.000000
RightFoot -17.205659 -20.928479 20.284159
RightToeBase 22.081650 -0.000000 -0.000000
